<svg width="2500" height="2500" viewBox="0 0 2500 2500" fill="none" xmlns="http://www.w3.org/2000/svg">
<g clip-path="url(#clip0_6_190)">
<path d="M1250 2500C1940.36 2500 2500 1940.36 2500 1250C2500 559.644 1940.36 0 1250 0C559.644 0 0 559.644 0 1250C0 1940.36 559.644 2500 1250 2500Z" fill="#003399"/>
<path d="M1444.79 603.125H1295.83L1250 462.5L1204.17 603.125H1055.21L1176.04 690.625L1130.21 832.292L1250 744.792L1369.79 832.292L1323.96 690.625L1444.79 603.125Z" fill="#FEDF00"/>
<path d="M1444.79 1781.25H1295.83L1250 1639.58L1204.17 1781.25H1055.21L1176.04 1868.75L1130.21 2009.37L1250 1921.87L1369.79 2009.37L1323.96 1868.75L1444.79 1781.25Z" fill="#FEDF00"/>
<path d="M935.417 897.917H786.458L740.625 756.25L694.792 897.917H545.833L665.625 985.417L619.792 1127.08L740.625 1039.58L860.417 1127.08L814.583 985.417L935.417 897.917Z" fill="#FEDF00"/>
<path d="M934.375 1486.46H786.458L740.625 1344.79L693.75 1486.46H545.833L665.625 1573.96L619.792 1715.62L740.625 1628.13L860.417 1715.62L814.583 1573.96L934.375 1486.46Z" fill="#FEDF00"/>
<path d="M1564.58 897.917L1685.42 985.417L1639.58 1127.08L1759.38 1039.58L1880.21 1127.08L1834.38 985.417L1954.17 897.917H1805.21L1759.38 756.25L1713.54 897.917H1564.58Z" fill="#FEDF00"/>
<path d="M1954.17 1486.46H1806.25L1759.37 1344.79L1713.54 1486.46H1565.62L1685.42 1573.96L1639.58 1715.62L1759.37 1628.13L1880.21 1715.62L1834.37 1573.96L1954.17 1486.46Z" fill="#FEDF00"/>
</g>
<defs>
<clipPath id="clip0_6_190">
<rect width="2500" height="2500" fill="white"/>
</clipPath>
</defs>
</svg>
