<svg width="2500" height="2500" viewBox="0 0 2500 2500" fill="none" xmlns="http://www.w3.org/2000/svg">
<path d="M1250 2500C1940.36 2500 2500 1940.36 2500 1250C2500 559.644 1940.36 0 1250 0C559.644 0 0 559.644 0 1250C0 1940.36 559.644 2500 1250 2500Z" fill="#F99400"/>
<path d="M1131.94 1759.72C1130.64 1759.1 1129.22 1758.78 1127.78 1758.78C1126.34 1758.78 1124.91 1759.1 1123.61 1759.72L1031.94 1736.11C1028.82 1745.15 1026.49 1754.44 1025 1763.89L972.222 1944.44C972.222 1958.33 972.222 1956.94 958.333 1954.17L844.444 1926.39H834.722C833.985 1924.87 833.602 1923.21 833.602 1921.53C833.602 1919.84 833.985 1918.18 834.722 1916.67L884.722 1712.5C884.722 1700 884.722 1698.61 875 1695.83L623.611 1631.94H613.888C634.722 1584.72 655.555 1538.89 675 1493.06C675 1493.06 675 1493.06 683.333 1493.06L713.888 1500L769.444 1513.89H787.5C795.282 1514.78 803.165 1513.73 810.439 1510.82C817.713 1507.91 824.149 1503.24 829.166 1497.22C835.504 1490.16 839.822 1481.53 841.666 1472.22C851.388 1436.11 859.722 1398.61 869.444 1362.5C887.5 1286.11 906.944 1209.72 926.388 1133.33C945.833 1056.94 969.444 956.944 991.666 869.444C1000.71 854.797 1003.73 837.22 1000.11 820.394C996.482 803.567 986.49 788.794 972.222 779.167L944.444 765.278L875 748.611H841.666C841.666 748.611 841.666 748.611 831.944 748.611C822.222 748.611 831.944 722.222 841.666 709.722C851.388 697.222 856.944 645.833 865.277 613.889C865.277 613.889 865.277 613.889 865.277 605.556C920.833 619.444 976.388 631.944 1031.94 647.222L1119.44 668.056H1129.17C1129.17 668.056 1129.17 668.056 1136.11 668.056C1143.06 641.667 1150 615.278 1155.56 588.889C1161.11 562.5 1177.78 502.778 1187.5 459.722L1250 448.611L1325 468.056C1325.65 470.795 1325.65 473.649 1325 476.389C1309.72 540.278 1293.06 605.556 1276.39 670.833C1276.39 670.833 1276.39 680.555 1276.39 684.722C1276.39 688.889 1284.72 684.722 1288.89 684.722L1373.61 705.556H1388.89C1388.89 705.556 1388.89 705.556 1388.89 697.222C1404.17 631.944 1420.83 568.056 1436.11 502.778C1436.11 487.5 1436.11 490.278 1452.78 493.056L1568.06 522.222C1568.06 522.222 1568.06 522.222 1568.06 530.556L1527.78 744.444C1527.78 755.556 1527.78 755.556 1534.72 758.333C1574.33 772.133 1612.86 788.845 1650 808.333C1682.47 826.488 1712.37 848.909 1738.89 875C1769.41 900.861 1792.43 934.435 1805.56 972.222C1810.4 1001.19 1810.4 1030.76 1805.56 1059.72C1801.6 1089.21 1794.14 1118.12 1783.33 1145.83C1771.08 1175.33 1752.16 1201.58 1728.06 1222.54C1703.97 1243.51 1675.35 1258.61 1644.44 1266.67C1644.44 1266.67 1633.33 1266.67 1630.56 1266.67C1627.78 1266.67 1638.89 1266.67 1643.06 1275C1669 1289.77 1692.83 1307.99 1713.89 1329.17C1747.08 1361.39 1768.17 1404.06 1773.61 1450C1777.13 1475.34 1777.13 1501.05 1773.61 1526.39C1766.99 1567.55 1753.86 1607.4 1734.72 1644.44C1718.5 1681.22 1693.74 1713.6 1662.5 1738.89C1631.79 1763.17 1596.29 1780.68 1558.33 1790.28C1512.89 1801.17 1466.04 1804.92 1419.44 1801.39L1347.22 1805.56L1279.17 1794.44C1278.52 1797.18 1278.52 1800.04 1279.17 1802.78L1227.78 2004.17C1227.78 2022.22 1227.78 2018.06 1209.72 2015.28L1098.61 1987.5C1087.5 1987.5 1087.5 1987.5 1090.28 1973.61C1106.94 1905.56 1123.61 1834.72 1141.67 1769.44C1130.56 1765.28 1131.94 1762.5 1131.94 1759.72ZM1316.67 1611.11H1355.56C1376.53 1608.82 1397.09 1603.68 1416.67 1595.83C1434.54 1589.21 1450.49 1578.26 1463.1 1563.96C1475.7 1549.66 1484.56 1532.45 1488.89 1513.89C1494.91 1493.27 1495.52 1471.45 1490.65 1450.53C1485.79 1429.6 1475.61 1410.29 1461.11 1394.44L1440.28 1373.61C1424.24 1360.5 1407.04 1348.87 1388.89 1338.89C1361.62 1325.06 1333.29 1313.45 1304.17 1304.17C1250 1288.89 1202.78 1277.78 1151.39 1265.28C1143.06 1265.28 1143.06 1265.28 1140.28 1273.61C1118.06 1363.89 1095.83 1455.56 1072.22 1551.39V1559.72C1120.83 1572.22 1169.44 1584.72 1211.11 1593.06C1245.63 1602.46 1280.98 1608.51 1316.67 1611.11ZM1380.56 1162.5C1391.63 1163.84 1402.82 1163.84 1413.89 1162.5C1431.58 1161.14 1448.94 1156.92 1465.28 1150C1480.42 1143.91 1494.02 1134.51 1505.07 1122.5C1516.12 1110.48 1524.35 1096.15 1529.17 1080.56V1063.89C1533.57 1044.39 1532.94 1024.1 1527.35 1004.9C1521.77 985.714 1511.4 968.256 1497.22 954.167C1484.56 942.003 1470.59 931.288 1455.56 922.222C1435.52 911.266 1414.61 901.975 1393.06 894.444C1352.67 880.128 1311.38 868.528 1269.44 859.722L1250 854.167C1250 854.167 1250 854.167 1241.67 854.167C1240.88 857.828 1240.88 861.616 1241.67 865.278C1241.67 881.944 1231.94 900 1227.78 918.056C1212.5 981.944 1195.83 1044.44 1180.56 1108.33C1180.56 1108.33 1180.56 1108.33 1180.56 1116.67C1218.44 1128.05 1256.92 1137.32 1295.83 1144.44C1323.51 1152.86 1351.85 1158.9 1380.56 1162.5Z" fill="#FFFFFE"/>
</svg>
