<svg width="2500" height="2500" viewBox="0 0 2500 2500" fill="none" xmlns="http://www.w3.org/2000/svg">
<g clip-path="url(#clip0_6_205)">
<path d="M1250 0C1497.23 0 1738.9 73.3112 1944.46 210.663C2150.02 348.015 2310.24 543.238 2404.85 771.646C2499.46 1000.05 2524.21 1251.39 2475.98 1493.86C2427.75 1736.34 2308.7 1959.07 2133.88 2133.88C1959.07 2308.7 1736.34 2427.75 1493.86 2475.98C1251.39 2524.21 1000.05 2499.46 771.646 2404.85C543.238 2310.24 348.015 2150.02 210.663 1944.46C73.3112 1738.9 0 1497.23 0 1250C0 918.479 131.696 600.537 366.116 366.117C600.537 131.696 918.479 0 1250 0Z" fill="#009444"/>
<path d="M202.083 1257.29L1244.79 1982.29L2288.54 1257.29L1244.79 532.292L202.083 1257.29Z" fill="#FFC800"/>
<path d="M766.667 1260.42C766.634 1364.64 800.73 1466 863.744 1549.02C926.758 1632.03 1015.22 1692.13 1115.62 1720.12C1216.01 1748.11 1322.81 1742.46 1419.68 1704.03C1516.56 1665.59 1598.18 1596.49 1652.08 1507.29C1399.63 1314.28 1082.56 1225.87 766.667 1260.42Z" fill="#002776"/>
<path d="M1717.71 1322.92C1721.34 1301.22 1723.42 1279.29 1723.96 1257.29C1723.57 1147.7 1685.64 1041.56 1616.48 956.556C1547.31 871.551 1451.1 812.822 1343.88 790.16C1236.67 767.498 1124.92 782.272 1027.27 832.02C929.629 881.768 851.987 963.483 807.292 1063.54C861.428 1055.51 916.105 1051.68 970.833 1052.08C1243.89 1051.76 1508.33 1147.65 1717.71 1322.92Z" fill="#002776"/>
<path d="M970.833 1052.08C916.123 1052.2 861.483 1056.02 807.292 1063.54C780.024 1124.51 765.83 1190.51 765.625 1257.29C1081.52 1222.75 1398.59 1311.15 1651.04 1504.17C1685.13 1447.76 1707.45 1385.05 1716.67 1319.79C1507.28 1144.53 1242.85 1048.64 969.792 1048.96" fill="white"/>
</g>
<defs>
<clipPath id="clip0_6_205">
<rect width="2500" height="2500" fill="white"/>
</clipPath>
</defs>
</svg>
