<svg width="2500" height="2500" viewBox="0 0 2500 2500" fill="none" xmlns="http://www.w3.org/2000/svg">
<path d="M1250 0C1497.23 0 1738.9 73.3111 1944.46 210.663C2150.02 348.014 2310.24 543.237 2404.85 771.644C2499.46 1000.05 2524.21 1251.38 2475.98 1493.86C2427.75 1736.34 2308.7 1959.06 2133.88 2133.88C1959.07 2308.7 1736.34 2427.75 1493.86 2475.98C1251.39 2524.21 1000.05 2499.45 771.645 2404.85C543.238 2310.24 348.014 2150.02 210.663 1944.46C73.3112 1738.9 0 1497.22 0 1250C0 918.478 131.696 600.536 366.116 366.116C600.536 131.696 918.479 0 1250 0Z" fill="#FEFEFE"/>
<path d="M833.333 808.332V71.8749C596.23 156.33 389.812 309.783 240.625 512.499L833.333 808.332ZM833.333 1691.66V2428.12C596.992 2343.3 391.341 2189.88 242.708 1987.5L833.333 1691.66ZM1666.67 1691.66V2429.16C1904.11 2345.34 2110.69 2191.76 2259.37 1988.54L1666.67 1691.66ZM1666.67 808.332V70.8332C1904.43 154.588 2111.13 308.614 2259.37 512.499L1666.67 808.332Z" fill="#012169"/>
<path d="M2360.42 1666.66H2083.33L2367.71 1809.37C2386.49 1772.49 2403.18 1734.59 2417.71 1695.83L2360.42 1666.66ZM2307.29 582.291L1807.29 833.332H2083.33L2366.67 691.665C2347.92 655.207 2327.08 618.749 2305.21 587.499L2307.29 582.291ZM997.918 1500V2475C1080.88 2491.84 1165.34 2500.22 1250 2500C1333.62 2500.2 1417.05 2491.82 1498.96 2475V1500H2475C2508.33 1334.65 2508.33 1164.31 2475 998.957H1498.96V25C1417.02 8.36114 1333.61 -0.0141219 1250 1.78737e-05C1165.37 0.320461 1080.96 8.69149 997.918 25V998.957H25.0019C8.33521 1081.6 -0.0396407 1165.69 0.00192888 1250C-0.146133 1333.96 8.23014 1417.72 25.0019 1500H997.918ZM135.418 833.332H416.668L131.252 691.665C112.466 728.9 95.7738 767.154 81.2519 806.249L135.418 833.332ZM689.585 1666.66H416.668L131.252 1808.33C150.002 1845.83 170.835 1882.29 192.71 1917.7L691.668 1666.66H689.585Z" fill="#B22234"/>
</svg>
