<svg width="2500" height="2500" viewBox="0 0 2500 2500" fill="none" xmlns="http://www.w3.org/2000/svg">
<path d="M1250 2500C1940.36 2500 2500 1940.36 2500 1250C2500 559.644 1940.36 0 1250 0C559.644 0 0 559.644 0 1250C0 1940.36 559.644 2500 1250 2500Z" fill="white"/>
<mask id="mask0_6_160" style="mask-type:luminance" maskUnits="userSpaceOnUse" x="0" y="0" width="2500" height="2500">
<path d="M1250 2500C1940.36 2500 2500 1940.36 2500 1250C2500 559.644 1940.36 0 1250 0C559.644 0 0 559.644 0 1250C0 1940.36 559.644 2500 1250 2500Z" fill="white"/>
</mask>
<g mask="url(#mask0_6_160)">
<path d="M2553.12 0H1250V323.958H2553.12V0Z" fill="#B22234"/>
<path d="M2553.12 625H1250V948.958H2553.12V625Z" fill="#B22234"/>
<path d="M2553.12 1250H-323.958V1573.96H2553.12V1250Z" fill="#B22234"/>
<path d="M2553.12 1897.92H-323.958V2221.88H2553.12V1897.92Z" fill="#B22234"/>
</g>
<path d="M1250 0C918.479 0 600.537 131.696 366.117 366.117C131.696 600.537 0 918.479 0 1250H1250V0Z" fill="#3C3B6E"/>
<mask id="mask1_6_160" style="mask-type:luminance" maskUnits="userSpaceOnUse" x="0" y="0" width="1250" height="1250">
<path d="M1250 0C918.479 0 600.537 131.696 366.117 366.117C131.696 600.537 0 918.479 0 1250H1250V0Z" fill="white"/>
</mask>
<g mask="url(#mask1_6_160)">
<path d="M1037.5 919.792L998.957 800L959.374 919.792H834.374L935.416 993.75L895.832 1113.54L997.916 1038.54L1100 1113.54L1061.46 993.75L1162.5 919.792H1037.5Z" fill="white"/>
<path d="M998.957 -34.3751L959.374 85.4165H834.374L935.416 158.333L895.832 279.167L997.916 204.167L1100 279.167L1061.46 158.333L1162.5 85.4165H1037.5L998.957 -34.3751Z" fill="white"/>
<path d="M998.957 352.083L959.374 471.875H834.374L935.416 545.833L895.832 664.583L997.916 590.625L1100 664.583L1061.46 545.833L1162.5 471.875H1037.5L998.957 352.083Z" fill="white"/>
<path d="M577.083 919.792L538.542 800L498.959 919.792H373.958L475 993.75L436.459 1113.54L538.542 1038.54L640.625 1113.54L601.042 993.75L703.125 919.792H577.083Z" fill="white"/>
<path d="M538.542 -34.3751L500 85.4165H373.958L475 158.333L436.459 279.167L538.542 204.167L640.625 279.167L601.042 158.333L703.125 85.4165H577.083L538.542 -34.3751Z" fill="white"/>
<path d="M538.542 383.333L498.959 502.083H373.958L475 576.041L436.459 695.833L538.542 621.875L640.625 695.833L601.042 576.041L703.125 502.083H577.083L538.542 383.333Z" fill="white"/>
<path d="M116.666 919.792L78.1246 800L39.5829 919.792H-86.4587L15.6246 993.75L-23.9587 1113.54L78.1246 1038.54L180.208 1113.54L140.625 993.75L242.708 919.792H116.666Z" fill="white"/>
<path d="M78.1246 383.333L39.5829 502.083H-86.4587L15.6246 576.041L-23.9587 695.833L78.1246 621.875L180.208 695.833L140.625 576.041L242.708 502.083H116.666L78.1246 383.333Z" fill="white"/>
</g>
</svg>
