<svg width="2500" height="2500" viewBox="0 0 2500 2500" fill="none" xmlns="http://www.w3.org/2000/svg">
<g clip-path="url(#clip0_6_130)">
<path d="M1250 0C1940.33 0 2500 559.675 2500 1250C2500 1940.33 1940.3 2500 1250 2500C559.7 2500 0 1940.48 0 1250C0 559.525 559.6 0 1250 0Z" fill="#53AE94"/>
<path d="M1404.28 1083.45V897.5H1829.5V614.175H671.6V897.5H1096.88V1083.3C751.25 1099.18 491.375 1167.63 491.375 1249.63C491.375 1331.63 751.375 1400.07 1096.88 1416.05V2011.67H1404.38V1416C1749.38 1400.08 2008.73 1331.67 2008.73 1249.75C2008.73 1167.82 1749.38 1099.42 1404.38 1083.5M1404.38 1365.55V1365.4C1395.7 1365.95 1351.13 1368.63 1251.88 1368.63C1172.53 1368.63 1116.7 1366.38 1097.03 1365.35V1365.6C791.675 1352.08 563.75 1298.9 563.75 1235.27C563.75 1171.65 791.7 1118.55 1097.03 1105V1312.62C1117.03 1314 1174.22 1317.38 1253.17 1317.38C1348 1317.38 1395.68 1313.42 1404.43 1312.62V1105C1709.18 1118.57 1936.58 1171.8 1936.58 1235.2C1936.58 1298.6 1709.08 1351.85 1404.43 1365.42" fill="white"/>
</g>
<defs>
<clipPath id="clip0_6_130">
<rect width="2500" height="2500" fill="white"/>
</clipPath>
</defs>
</svg>
